<svg width="64" height="64" viewBox="0 0 64 64" fill="none" xmlns="http://www.w3.org/2000/svg">
<path fill-rule="evenodd" clip-rule="evenodd" d="M50.6667 55.7037C50.6667 57.3393 49.3895 58.6667 47.8095 58.6667C46.2295 58.6667 44.9524 57.3393 44.9524 55.7037C44.9524 47.5348 38.5438 40.8889 30.6667 40.8889C22.7895 40.8889 16.381 47.5348 16.381 55.7037C16.381 57.3393 15.1038 58.6667 13.5238 58.6667C11.9438 58.6667 10.6667 57.3393 10.6667 55.7037C10.6667 44.2667 19.641 34.963 30.6667 34.963C41.6924 34.963 50.6667 44.2667 50.6667 55.7037M30.6666 11.2593C33.8181 11.2593 36.3809 13.917 36.3809 17.1852C36.3809 20.4533 33.8181 23.1111 30.6666 23.1111C27.5152 23.1111 24.9524 20.4533 24.9524 17.1852C24.9524 13.917 27.5152 11.2593 30.6666 11.2593M30.6667 29.037C36.9696 29.037 42.0953 23.7215 42.0953 17.1852C42.0953 10.6489 36.9696 5.33333 30.6667 5.33333C24.3638 5.33333 19.2381 10.6489 19.2381 17.1852C19.2381 23.7215 24.3638 29.037 30.6667 29.037" fill="black"/>
</svg>
